<svg xmlns="http://www.w3.org/2000/svg" xmlns:xlink="http://www.w3.org/1999/xlink" width="500" zoomAndPan="magnify" viewBox="0 0 375 374.999991" height="500" preserveAspectRatio="xMidYMid meet" version="1.0"><defs><g/></defs><g fill="#690b22" fill-opacity="0.4"><g transform="translate(87.740653, 251.302287)"><g><path d="M 30.71875 -8.34375 C 30.78125 -6.269531 30.78125 -4.171875 30.71875 -2.046875 C 30.664062 -0.859375 30.222656 -0.21875 29.390625 -0.125 C 28.566406 -0.0390625 27.648438 0 26.640625 0 L 8.4375 0 C 7.132812 0 6.1875 -0.0703125 5.59375 -0.21875 C 5 -0.363281 4.628906 -0.734375 4.484375 -1.328125 C 4.335938 -1.921875 4.265625 -2.867188 4.265625 -4.171875 L 4.265625 -27.875 L 0.703125 -29.921875 C 0.234375 -30.222656 0 -30.640625 0 -31.171875 C 0 -31.765625 0.234375 -32.207031 0.703125 -32.5 L 4.265625 -34.546875 L 4.265625 -57.890625 C 4.265625 -59.367188 4.335938 -60.421875 4.484375 -61.046875 C 4.628906 -61.671875 5.015625 -62.054688 5.640625 -62.203125 C 6.265625 -62.347656 7.285156 -62.421875 8.703125 -62.421875 C 9.585938 -62.421875 10.351562 -62.421875 11 -62.421875 C 11.65625 -62.421875 12.191406 -62.390625 12.609375 -62.328125 C 13.847656 -62.273438 14.507812 -61.773438 14.59375 -60.828125 C 14.6875 -59.878906 14.734375 -58.546875 14.734375 -56.828125 L 14.734375 -34.546875 L 18.296875 -32.5 C 18.765625 -32.144531 19 -31.703125 19 -31.171875 C 19 -30.691406 18.765625 -30.273438 18.296875 -29.921875 L 14.734375 -27.875 L 14.734375 -17.234375 C 14.734375 -16.335938 14.75 -15.59375 14.78125 -15 C 14.8125 -14.414062 14.828125 -13.972656 14.828125 -13.671875 C 14.941406 -12.429688 15.222656 -11.601562 15.671875 -11.1875 C 16.117188 -10.769531 16.960938 -10.5625 18.203125 -10.5625 C 19.441406 -10.5625 21.335938 -10.535156 23.890625 -10.484375 C 25.835938 -10.484375 27.285156 -10.484375 28.234375 -10.484375 C 29.179688 -10.484375 29.832031 -10.347656 30.1875 -10.078125 C 30.539062 -9.804688 30.71875 -9.226562 30.71875 -8.34375 Z M 30.71875 -8.34375 "/></g></g></g><g fill="#690b22" fill-opacity="0.4"><g transform="translate(121.661989, 251.302287)"><g><path d="M 31.171875 -8.609375 C 31.285156 -7.484375 31.328125 -6.359375 31.296875 -5.234375 C 31.265625 -4.109375 31.191406 -3.015625 31.078125 -1.953125 C 31.015625 -0.890625 30.539062 -0.296875 29.65625 -0.171875 C 28.769531 -0.0546875 27.851562 0 26.90625 0 L 7.640625 0 C 7.046875 0 6.40625 -0.0234375 5.71875 -0.078125 C 5.039062 -0.140625 4.492188 -0.347656 4.078125 -0.703125 C 3.671875 -1.066406 3.453125 -1.601562 3.421875 -2.3125 C 3.390625 -3.019531 3.375 -4.203125 3.375 -5.859375 L 3.375 -57.546875 C 3.375 -59.023438 3.445312 -60.085938 3.59375 -60.734375 C 3.738281 -61.390625 4.125 -61.789062 4.75 -61.9375 C 5.375 -62.082031 6.394531 -62.15625 7.8125 -62.15625 L 27 -62.15625 C 28.882812 -62.15625 30.097656 -61.945312 30.640625 -61.53125 C 30.929688 -61.300781 31.117188 -60.722656 31.203125 -59.796875 C 31.296875 -58.878906 31.328125 -57.90625 31.296875 -56.875 C 31.265625 -55.84375 31.222656 -54.96875 31.171875 -54.25 C 31.109375 -53.1875 30.644531 -52.59375 29.78125 -52.46875 C 28.925781 -52.351562 27.847656 -52.296875 26.546875 -52.296875 L 17.765625 -52.296875 C 16.285156 -52.242188 15.289062 -51.945312 14.78125 -51.40625 C 14.28125 -50.875 13.972656 -49.929688 13.859375 -48.578125 C 13.796875 -47.097656 13.78125 -45.613281 13.8125 -44.125 C 13.84375 -42.644531 13.882812 -41.195312 13.9375 -39.78125 C 13.9375 -38.71875 14.203125 -37.859375 14.734375 -37.203125 C 15.273438 -36.734375 16.03125 -36.46875 17 -36.40625 C 17.976562 -36.34375 19.148438 -36.3125 20.515625 -36.3125 C 21.222656 -36.3125 21.84375 -36.3125 22.375 -36.3125 C 22.90625 -36.3125 23.320312 -36.285156 23.625 -36.234375 C 24.6875 -36.234375 25.394531 -36.039062 25.75 -35.65625 C 26.101562 -35.269531 26.3125 -34.539062 26.375 -33.46875 C 26.4375 -32.53125 26.46875 -31.597656 26.46875 -30.671875 C 26.46875 -29.753906 26.40625 -28.820312 26.28125 -27.875 C 26.28125 -26.695312 25.628906 -26.046875 24.328125 -25.921875 C 23.679688 -25.867188 22.851562 -25.84375 21.84375 -25.84375 C 20.832031 -25.84375 19.675781 -25.84375 18.375 -25.84375 C 16.71875 -25.84375 15.59375 -25.601562 15 -25.125 C 14.414062 -24.65625 14.0625 -23.472656 13.9375 -21.578125 C 13.882812 -20.515625 13.84375 -19.375 13.8125 -18.15625 C 13.78125 -16.945312 13.796875 -15.660156 13.859375 -14.296875 C 13.972656 -12.878906 14.28125 -11.898438 14.78125 -11.359375 C 15.289062 -10.828125 16.285156 -10.535156 17.765625 -10.484375 L 26.46875 -10.484375 C 27.820312 -10.421875 28.910156 -10.34375 29.734375 -10.25 C 30.566406 -10.164062 31.046875 -9.617188 31.171875 -8.609375 Z M 31.171875 -8.609375 "/></g></g></g><g fill="#690b22" fill-opacity="0.4"><g transform="translate(156.826525, 251.302287)"><g><path d="M 36.671875 -62.0625 C 37.203125 -62.0625 37.644531 -61.859375 38 -61.453125 C 38.300781 -61.035156 38.40625 -60.570312 38.3125 -60.0625 C 38.226562 -59.5625 38.035156 -58.957031 37.734375 -58.25 C 36.015625 -53.15625 34.222656 -48.09375 32.359375 -43.0625 C 30.492188 -38.03125 28.617188 -32.4375 26.734375 -26.28125 C 26.609375 -25.863281 26.53125 -25.40625 26.5 -24.90625 C 26.476562 -24.40625 26.46875 -23.890625 26.46875 -23.359375 C 26.519531 -14.296875 26.519531 -8.140625 26.46875 -4.890625 C 26.46875 -3.222656 26.40625 -2.0625 26.28125 -1.40625 C 26.164062 -0.757812 25.765625 -0.363281 25.078125 -0.21875 C 24.398438 -0.0703125 23.265625 0 21.671875 0 L 18.46875 0 C 17.644531 -0.0625 17.066406 -0.253906 16.734375 -0.578125 C 16.410156 -0.898438 16.191406 -1.476562 16.078125 -2.3125 C 16.078125 -2.601562 16.0625 -3.160156 16.03125 -3.984375 C 16 -4.816406 15.984375 -5.914062 15.984375 -7.28125 L 15.984375 -20.515625 C 16.046875 -21.398438 16.03125 -22.332031 15.9375 -23.3125 C 15.851562 -24.289062 15.660156 -25.25 15.359375 -26.1875 C 14.941406 -27.726562 14.46875 -29.296875 13.9375 -30.890625 C 13.40625 -32.492188 12.609375 -34.75 11.546875 -37.65625 L 4.703125 -57.453125 C 4.523438 -57.984375 4.363281 -58.5 4.21875 -59 C 4.070312 -59.507812 3.9375 -60 3.8125 -60.46875 C 3.757812 -60.820312 3.832031 -61.160156 4.03125 -61.484375 C 4.238281 -61.816406 4.523438 -62.007812 4.890625 -62.0625 C 7.898438 -62.425781 10.796875 -62.425781 13.578125 -62.0625 C 14.410156 -61.882812 15.003906 -61.234375 15.359375 -60.109375 C 15.660156 -59.398438 15.972656 -58.539062 16.296875 -57.53125 C 16.617188 -56.53125 16.988281 -55.410156 17.40625 -54.171875 C 17.519531 -53.628906 17.796875 -52.675781 18.234375 -51.3125 C 18.679688 -49.957031 19.023438 -48.894531 19.265625 -48.125 C 19.441406 -47.53125 19.675781 -46.9375 19.96875 -46.34375 C 20.269531 -45.757812 20.660156 -45.46875 21.140625 -45.46875 C 21.722656 -45.46875 22.101562 -45.820312 22.28125 -46.53125 C 22.519531 -47.175781 22.757812 -47.851562 23 -48.5625 C 23.238281 -49.28125 23.503906 -50.113281 23.796875 -51.0625 C 24.566406 -53.488281 25.203125 -55.484375 25.703125 -57.046875 C 26.210938 -58.617188 26.613281 -59.789062 26.90625 -60.5625 C 27.257812 -61.507812 27.941406 -62.039062 28.953125 -62.15625 C 30.546875 -62.15625 31.992188 -62.15625 33.296875 -62.15625 C 34.597656 -62.15625 35.722656 -62.125 36.671875 -62.0625 Z M 36.671875 -62.0625 "/></g></g></g><g fill="#690b22" fill-opacity="0.4"><g transform="translate(198.295804, 251.302287)"><g><path d="M 31.171875 -8.609375 C 31.285156 -7.484375 31.328125 -6.359375 31.296875 -5.234375 C 31.265625 -4.109375 31.191406 -3.015625 31.078125 -1.953125 C 31.015625 -0.890625 30.539062 -0.296875 29.65625 -0.171875 C 28.769531 -0.0546875 27.851562 0 26.90625 0 L 7.640625 0 C 7.046875 0 6.40625 -0.0234375 5.71875 -0.078125 C 5.039062 -0.140625 4.492188 -0.347656 4.078125 -0.703125 C 3.671875 -1.066406 3.453125 -1.601562 3.421875 -2.3125 C 3.390625 -3.019531 3.375 -4.203125 3.375 -5.859375 L 3.375 -57.546875 C 3.375 -59.023438 3.445312 -60.085938 3.59375 -60.734375 C 3.738281 -61.390625 4.125 -61.789062 4.75 -61.9375 C 5.375 -62.082031 6.394531 -62.15625 7.8125 -62.15625 L 27 -62.15625 C 28.882812 -62.15625 30.097656 -61.945312 30.640625 -61.53125 C 30.929688 -61.300781 31.117188 -60.722656 31.203125 -59.796875 C 31.296875 -58.878906 31.328125 -57.90625 31.296875 -56.875 C 31.265625 -55.84375 31.222656 -54.96875 31.171875 -54.25 C 31.109375 -53.1875 30.644531 -52.59375 29.78125 -52.46875 C 28.925781 -52.351562 27.847656 -52.296875 26.546875 -52.296875 L 17.765625 -52.296875 C 16.285156 -52.242188 15.289062 -51.945312 14.78125 -51.40625 C 14.28125 -50.875 13.972656 -49.929688 13.859375 -48.578125 C 13.796875 -47.097656 13.78125 -45.613281 13.8125 -44.125 C 13.84375 -42.644531 13.882812 -41.195312 13.9375 -39.78125 C 13.9375 -38.71875 14.203125 -37.859375 14.734375 -37.203125 C 15.273438 -36.734375 16.03125 -36.46875 17 -36.40625 C 17.976562 -36.34375 19.148438 -36.3125 20.515625 -36.3125 C 21.222656 -36.3125 21.84375 -36.3125 22.375 -36.3125 C 22.90625 -36.3125 23.320312 -36.285156 23.625 -36.234375 C 24.6875 -36.234375 25.394531 -36.039062 25.75 -35.65625 C 26.101562 -35.269531 26.3125 -34.539062 26.375 -33.46875 C 26.4375 -32.53125 26.46875 -31.597656 26.46875 -30.671875 C 26.46875 -29.753906 26.40625 -28.820312 26.28125 -27.875 C 26.28125 -26.695312 25.628906 -26.046875 24.328125 -25.921875 C 23.679688 -25.867188 22.851562 -25.84375 21.84375 -25.84375 C 20.832031 -25.84375 19.675781 -25.84375 18.375 -25.84375 C 16.71875 -25.84375 15.59375 -25.601562 15 -25.125 C 14.414062 -24.65625 14.0625 -23.472656 13.9375 -21.578125 C 13.882812 -20.515625 13.84375 -19.375 13.8125 -18.15625 C 13.78125 -16.945312 13.796875 -15.660156 13.859375 -14.296875 C 13.972656 -12.878906 14.28125 -11.898438 14.78125 -11.359375 C 15.289062 -10.828125 16.285156 -10.535156 17.765625 -10.484375 L 26.46875 -10.484375 C 27.820312 -10.421875 28.910156 -10.34375 29.734375 -10.25 C 30.566406 -10.164062 31.046875 -9.617188 31.171875 -8.609375 Z M 31.171875 -8.609375 "/></g></g></g><g fill="#690b22" fill-opacity="0.4"><g transform="translate(233.46034, 251.302287)"><g><path d="M 38 -4.890625 C 38 -3.347656 37.910156 -2.21875 37.734375 -1.5 C 37.554688 -0.789062 37.128906 -0.363281 36.453125 -0.21875 C 35.773438 -0.0703125 34.632812 0 33.03125 0 C 32.320312 0 31.460938 0.015625 30.453125 0.046875 C 29.453125 0.078125 28.519531 -0.0507812 27.65625 -0.34375 C 26.800781 -0.644531 26.222656 -1.238281 25.921875 -2.125 C 25.867188 -2.300781 25.8125 -2.507812 25.75 -2.75 C 25.6875 -2.988281 25.597656 -3.253906 25.484375 -3.546875 L 25.046875 -4.796875 C 22.796875 -11.835938 21.117188 -17.0625 20.015625 -20.46875 C 18.921875 -23.875 18.40625 -25.457031 18.46875 -25.21875 L 17.40625 -28.15625 C 17.164062 -28.6875 16.804688 -28.90625 16.328125 -28.8125 C 15.859375 -28.726562 15.503906 -28.414062 15.265625 -27.875 C 15.035156 -27.226562 14.921875 -25.957031 14.921875 -24.0625 L 14.921875 -4.796875 C 14.921875 -3.191406 14.84375 -2.0625 14.6875 -1.40625 C 14.539062 -0.757812 14.113281 -0.363281 13.40625 -0.21875 C 12.695312 -0.0703125 11.515625 0 9.859375 0 L 6.75 0 C 5.382812 -0.175781 4.640625 -0.765625 4.515625 -1.765625 C 4.398438 -2.773438 4.34375 -3.992188 4.34375 -5.421875 L 4.34375 -57.359375 C 4.34375 -58.722656 4.398438 -59.878906 4.515625 -60.828125 C 4.640625 -61.773438 5.207031 -62.273438 6.21875 -62.328125 L 14.65625 -62.328125 C 15.78125 -62.328125 16.519531 -61.707031 16.875 -60.46875 C 16.988281 -60.175781 17.132812 -59.75 17.3125 -59.1875 C 17.488281 -58.625 17.695312 -57.925781 17.9375 -57.09375 C 18.175781 -56.382812 18.382812 -55.75 18.5625 -55.1875 C 18.738281 -54.625 18.851562 -54.132812 18.90625 -53.71875 C 19.269531 -52.539062 19.71875 -51.0625 20.25 -49.28125 C 20.78125 -47.507812 21.328125 -45.660156 21.890625 -43.734375 C 22.453125 -41.804688 22.96875 -40.054688 23.4375 -38.484375 C 23.914062 -36.921875 24.273438 -35.722656 24.515625 -34.890625 C 24.691406 -34.359375 24.867188 -33.914062 25.046875 -33.5625 C 25.273438 -33.03125 25.640625 -32.789062 26.140625 -32.84375 C 26.648438 -32.90625 26.9375 -33.207031 27 -33.75 C 27.289062 -34.570312 27.4375 -35.21875 27.4375 -35.6875 C 27.4375 -36.164062 27.4375 -37.144531 27.4375 -38.625 C 27.5 -45.257812 27.53125 -50.171875 27.53125 -53.359375 C 27.53125 -56.554688 27.53125 -58.066406 27.53125 -57.890625 C 27.53125 -59.367188 27.601562 -60.421875 27.75 -61.046875 C 27.894531 -61.671875 28.289062 -62.054688 28.9375 -62.203125 C 29.59375 -62.347656 30.632812 -62.421875 32.0625 -62.421875 C 32.820312 -62.421875 33.554688 -62.421875 34.265625 -62.421875 C 34.984375 -62.421875 35.664062 -62.363281 36.3125 -62.25 C 37.257812 -62.1875 37.773438 -61.695312 37.859375 -60.78125 C 37.953125 -59.863281 38 -58.898438 38 -57.890625 Z M 38 -4.890625 "/></g></g></g><g fill="#690b22" fill-opacity="0.4"><g transform="translate(275.462429, 251.302287)"><g><path d="M 29.03125 -59.140625 C 31.226562 -56.953125 32.679688 -55.015625 33.390625 -53.328125 C 34.097656 -51.640625 34.453125 -49.785156 34.453125 -47.765625 L 34.453125 -15.1875 C 34.453125 -12.050781 33.679688 -9.269531 32.140625 -6.84375 C 30.722656 -4.769531 29.363281 -3.226562 28.0625 -2.21875 C 26.757812 -1.207031 25.25 -0.554688 23.53125 -0.265625 C 21.8125 0.0234375 19.648438 0.140625 17.046875 0.078125 C 14.441406 0.0234375 11.128906 0 7.109375 0 L 6.75 0 C 5.914062 0 5.320312 -0.175781 4.96875 -0.53125 C 4.613281 -0.882812 4.40625 -1.398438 4.34375 -2.078125 C 4.289062 -2.765625 4.265625 -3.90625 4.265625 -5.5 L 4.265625 -57.359375 C 4.265625 -58.015625 4.273438 -58.609375 4.296875 -59.140625 C 4.328125 -59.671875 4.34375 -60.113281 4.34375 -60.46875 C 4.46875 -61.53125 4.941406 -62.117188 5.765625 -62.234375 C 6.597656 -62.359375 7.429688 -62.421875 8.265625 -62.421875 C 12.398438 -62.484375 15.519531 -62.515625 17.625 -62.515625 C 19.726562 -62.515625 20.8125 -62.515625 20.875 -62.515625 C 24.125 -62.515625 26.84375 -61.390625 29.03125 -59.140625 Z M 23.96875 -44.84375 C 23.96875 -45.4375 23.96875 -45.925781 23.96875 -46.3125 C 23.96875 -46.695312 23.941406 -47.003906 23.890625 -47.234375 C 23.648438 -50.140625 22.082031 -51.679688 19.1875 -51.859375 C 17.519531 -51.972656 16.359375 -51.78125 15.703125 -51.28125 C 15.054688 -50.78125 14.765625 -49.703125 14.828125 -48.046875 L 14.828125 -15.453125 C 14.828125 -14.390625 14.882812 -13.441406 15 -12.609375 C 15.125 -11.773438 15.597656 -11.179688 16.421875 -10.828125 C 17.546875 -10.421875 18.6875 -10.363281 19.84375 -10.65625 C 21 -10.945312 21.972656 -11.519531 22.765625 -12.375 C 23.566406 -13.238281 23.96875 -14.234375 23.96875 -15.359375 Z M 23.96875 -44.84375 "/></g></g></g><g fill="#690b22" fill-opacity="0.4"><g transform="translate(314.001327, 251.302287)"><g><path d="M 34.359375 -16.78125 C 34.359375 -16.3125 34.285156 -15.5 34.140625 -14.34375 C 33.992188 -13.1875 33.742188 -11.691406 33.390625 -9.859375 C 33.328125 -9.441406 33.222656 -9.054688 33.078125 -8.703125 C 32.929688 -8.347656 32.738281 -7.960938 32.5 -7.546875 C 30.71875 -4.703125 28.566406 -2.613281 26.046875 -1.28125 C 23.535156 0.0390625 20.929688 0.671875 18.234375 0.609375 C 15.546875 0.554688 13.03125 -0.160156 10.6875 -1.546875 C 8.351562 -2.941406 6.476562 -4.972656 5.0625 -7.640625 C 4.050781 -9.472656 3.546875 -11.835938 3.546875 -14.734375 L 3.546875 -48.046875 C 3.367188 -53.253906 5.859375 -57.722656 11.015625 -61.453125 C 12.078125 -62.222656 13.140625 -62.695312 14.203125 -62.875 C 17.703125 -63.40625 20.648438 -63.398438 23.046875 -62.859375 C 25.441406 -62.328125 27.554688 -61.175781 29.390625 -59.40625 C 31.285156 -57.6875 32.570312 -55.640625 33.25 -53.265625 C 33.9375 -50.898438 34.28125 -48.535156 34.28125 -46.171875 Z M 22.640625 -13.140625 C 22.992188 -13.972656 23.171875 -15.097656 23.171875 -16.515625 L 23.171875 -46.53125 C 23.171875 -47.175781 23.125 -47.75 23.03125 -48.25 C 22.945312 -48.757812 22.847656 -49.222656 22.734375 -49.640625 C 22.253906 -51.117188 21.363281 -52.050781 20.0625 -52.4375 C 18.757812 -52.820312 17.5 -52.71875 16.28125 -52.125 C 15.070312 -51.53125 14.351562 -50.460938 14.125 -48.921875 C 14.0625 -48.691406 14.03125 -48.335938 14.03125 -47.859375 C 14.03125 -47.390625 14.03125 -46.796875 14.03125 -46.078125 L 14.03125 -17.140625 C 14.03125 -16.253906 14.054688 -15.484375 14.109375 -14.828125 C 14.171875 -14.179688 14.289062 -13.675781 14.46875 -13.3125 C 14.945312 -12.132812 15.734375 -11.320312 16.828125 -10.875 C 17.921875 -10.4375 19.03125 -10.40625 20.15625 -10.78125 C 21.28125 -11.164062 22.109375 -11.953125 22.640625 -13.140625 Z M 22.640625 -13.140625 "/></g></g></g><g fill="#690b22" fill-opacity="1"><g transform="translate(82.716906, 246.278548)"><g><path d="M 30.71875 -8.34375 C 30.78125 -6.269531 30.78125 -4.171875 30.71875 -2.046875 C 30.664062 -0.859375 30.222656 -0.21875 29.390625 -0.125 C 28.566406 -0.0390625 27.648438 0 26.640625 0 L 8.4375 0 C 7.132812 0 6.1875 -0.0703125 5.59375 -0.21875 C 5 -0.363281 4.628906 -0.734375 4.484375 -1.328125 C 4.335938 -1.921875 4.265625 -2.867188 4.265625 -4.171875 L 4.265625 -27.875 L 0.703125 -29.921875 C 0.234375 -30.222656 0 -30.640625 0 -31.171875 C 0 -31.765625 0.234375 -32.207031 0.703125 -32.5 L 4.265625 -34.546875 L 4.265625 -57.890625 C 4.265625 -59.367188 4.335938 -60.421875 4.484375 -61.046875 C 4.628906 -61.671875 5.015625 -62.054688 5.640625 -62.203125 C 6.265625 -62.347656 7.285156 -62.421875 8.703125 -62.421875 C 9.585938 -62.421875 10.351562 -62.421875 11 -62.421875 C 11.65625 -62.421875 12.191406 -62.390625 12.609375 -62.328125 C 13.847656 -62.273438 14.507812 -61.773438 14.59375 -60.828125 C 14.6875 -59.878906 14.734375 -58.546875 14.734375 -56.828125 L 14.734375 -34.546875 L 18.296875 -32.5 C 18.765625 -32.144531 19 -31.703125 19 -31.171875 C 19 -30.691406 18.765625 -30.273438 18.296875 -29.921875 L 14.734375 -27.875 L 14.734375 -17.234375 C 14.734375 -16.335938 14.75 -15.59375 14.78125 -15 C 14.8125 -14.414062 14.828125 -13.972656 14.828125 -13.671875 C 14.941406 -12.429688 15.222656 -11.601562 15.671875 -11.1875 C 16.117188 -10.769531 16.960938 -10.5625 18.203125 -10.5625 C 19.441406 -10.5625 21.335938 -10.535156 23.890625 -10.484375 C 25.835938 -10.484375 27.285156 -10.484375 28.234375 -10.484375 C 29.179688 -10.484375 29.832031 -10.347656 30.1875 -10.078125 C 30.539062 -9.804688 30.71875 -9.226562 30.71875 -8.34375 Z M 30.71875 -8.34375 "/></g></g></g><g fill="#690b22" fill-opacity="1"><g transform="translate(116.638243, 246.278548)"><g><path d="M 31.171875 -8.609375 C 31.285156 -7.484375 31.328125 -6.359375 31.296875 -5.234375 C 31.265625 -4.109375 31.191406 -3.015625 31.078125 -1.953125 C 31.015625 -0.890625 30.539062 -0.296875 29.65625 -0.171875 C 28.769531 -0.0546875 27.851562 0 26.90625 0 L 7.640625 0 C 7.046875 0 6.40625 -0.0234375 5.71875 -0.078125 C 5.039062 -0.140625 4.492188 -0.347656 4.078125 -0.703125 C 3.671875 -1.066406 3.453125 -1.601562 3.421875 -2.3125 C 3.390625 -3.019531 3.375 -4.203125 3.375 -5.859375 L 3.375 -57.546875 C 3.375 -59.023438 3.445312 -60.085938 3.59375 -60.734375 C 3.738281 -61.390625 4.125 -61.789062 4.75 -61.9375 C 5.375 -62.082031 6.394531 -62.15625 7.8125 -62.15625 L 27 -62.15625 C 28.882812 -62.15625 30.097656 -61.945312 30.640625 -61.53125 C 30.929688 -61.300781 31.117188 -60.722656 31.203125 -59.796875 C 31.296875 -58.878906 31.328125 -57.90625 31.296875 -56.875 C 31.265625 -55.84375 31.222656 -54.96875 31.171875 -54.25 C 31.109375 -53.1875 30.644531 -52.59375 29.78125 -52.46875 C 28.925781 -52.351562 27.847656 -52.296875 26.546875 -52.296875 L 17.765625 -52.296875 C 16.285156 -52.242188 15.289062 -51.945312 14.78125 -51.40625 C 14.28125 -50.875 13.972656 -49.929688 13.859375 -48.578125 C 13.796875 -47.097656 13.78125 -45.613281 13.8125 -44.125 C 13.84375 -42.644531 13.882812 -41.195312 13.9375 -39.78125 C 13.9375 -38.71875 14.203125 -37.859375 14.734375 -37.203125 C 15.273438 -36.734375 16.03125 -36.46875 17 -36.40625 C 17.976562 -36.34375 19.148438 -36.3125 20.515625 -36.3125 C 21.222656 -36.3125 21.84375 -36.3125 22.375 -36.3125 C 22.90625 -36.3125 23.320312 -36.285156 23.625 -36.234375 C 24.6875 -36.234375 25.394531 -36.039062 25.75 -35.65625 C 26.101562 -35.269531 26.3125 -34.539062 26.375 -33.46875 C 26.4375 -32.53125 26.46875 -31.597656 26.46875 -30.671875 C 26.46875 -29.753906 26.40625 -28.820312 26.28125 -27.875 C 26.28125 -26.695312 25.628906 -26.046875 24.328125 -25.921875 C 23.679688 -25.867188 22.851562 -25.84375 21.84375 -25.84375 C 20.832031 -25.84375 19.675781 -25.84375 18.375 -25.84375 C 16.71875 -25.84375 15.59375 -25.601562 15 -25.125 C 14.414062 -24.65625 14.0625 -23.472656 13.9375 -21.578125 C 13.882812 -20.515625 13.84375 -19.375 13.8125 -18.15625 C 13.78125 -16.945312 13.796875 -15.660156 13.859375 -14.296875 C 13.972656 -12.878906 14.28125 -11.898438 14.78125 -11.359375 C 15.289062 -10.828125 16.285156 -10.535156 17.765625 -10.484375 L 26.46875 -10.484375 C 27.820312 -10.421875 28.910156 -10.34375 29.734375 -10.25 C 30.566406 -10.164062 31.046875 -9.617188 31.171875 -8.609375 Z M 31.171875 -8.609375 "/></g></g></g><g fill="#690b22" fill-opacity="1"><g transform="translate(151.802779, 246.278548)"><g><path d="M 36.671875 -62.0625 C 37.203125 -62.0625 37.644531 -61.859375 38 -61.453125 C 38.300781 -61.035156 38.40625 -60.570312 38.3125 -60.0625 C 38.226562 -59.5625 38.035156 -58.957031 37.734375 -58.25 C 36.015625 -53.15625 34.222656 -48.09375 32.359375 -43.0625 C 30.492188 -38.03125 28.617188 -32.4375 26.734375 -26.28125 C 26.609375 -25.863281 26.53125 -25.40625 26.5 -24.90625 C 26.476562 -24.40625 26.46875 -23.890625 26.46875 -23.359375 C 26.519531 -14.296875 26.519531 -8.140625 26.46875 -4.890625 C 26.46875 -3.222656 26.40625 -2.0625 26.28125 -1.40625 C 26.164062 -0.757812 25.765625 -0.363281 25.078125 -0.21875 C 24.398438 -0.0703125 23.265625 0 21.671875 0 L 18.46875 0 C 17.644531 -0.0625 17.066406 -0.253906 16.734375 -0.578125 C 16.410156 -0.898438 16.191406 -1.476562 16.078125 -2.3125 C 16.078125 -2.601562 16.0625 -3.160156 16.03125 -3.984375 C 16 -4.816406 15.984375 -5.914062 15.984375 -7.28125 L 15.984375 -20.515625 C 16.046875 -21.398438 16.03125 -22.332031 15.9375 -23.3125 C 15.851562 -24.289062 15.660156 -25.25 15.359375 -26.1875 C 14.941406 -27.726562 14.46875 -29.296875 13.9375 -30.890625 C 13.40625 -32.492188 12.609375 -34.75 11.546875 -37.65625 L 4.703125 -57.453125 C 4.523438 -57.984375 4.363281 -58.5 4.21875 -59 C 4.070312 -59.507812 3.9375 -60 3.8125 -60.46875 C 3.757812 -60.820312 3.832031 -61.160156 4.03125 -61.484375 C 4.238281 -61.816406 4.523438 -62.007812 4.890625 -62.0625 C 7.898438 -62.425781 10.796875 -62.425781 13.578125 -62.0625 C 14.410156 -61.882812 15.003906 -61.234375 15.359375 -60.109375 C 15.660156 -59.398438 15.972656 -58.539062 16.296875 -57.53125 C 16.617188 -56.53125 16.988281 -55.410156 17.40625 -54.171875 C 17.519531 -53.628906 17.796875 -52.675781 18.234375 -51.3125 C 18.679688 -49.957031 19.023438 -48.894531 19.265625 -48.125 C 19.441406 -47.53125 19.675781 -46.9375 19.96875 -46.34375 C 20.269531 -45.757812 20.660156 -45.46875 21.140625 -45.46875 C 21.722656 -45.46875 22.101562 -45.820312 22.28125 -46.53125 C 22.519531 -47.175781 22.757812 -47.851562 23 -48.5625 C 23.238281 -49.28125 23.503906 -50.113281 23.796875 -51.0625 C 24.566406 -53.488281 25.203125 -55.484375 25.703125 -57.046875 C 26.210938 -58.617188 26.613281 -59.789062 26.90625 -60.5625 C 27.257812 -61.507812 27.941406 -62.039062 28.953125 -62.15625 C 30.546875 -62.15625 31.992188 -62.15625 33.296875 -62.15625 C 34.597656 -62.15625 35.722656 -62.125 36.671875 -62.0625 Z M 36.671875 -62.0625 "/></g></g></g><g fill="#690b22" fill-opacity="1"><g transform="translate(193.272057, 246.278548)"><g><path d="M 31.171875 -8.609375 C 31.285156 -7.484375 31.328125 -6.359375 31.296875 -5.234375 C 31.265625 -4.109375 31.191406 -3.015625 31.078125 -1.953125 C 31.015625 -0.890625 30.539062 -0.296875 29.65625 -0.171875 C 28.769531 -0.0546875 27.851562 0 26.90625 0 L 7.640625 0 C 7.046875 0 6.40625 -0.0234375 5.71875 -0.078125 C 5.039062 -0.140625 4.492188 -0.347656 4.078125 -0.703125 C 3.671875 -1.066406 3.453125 -1.601562 3.421875 -2.3125 C 3.390625 -3.019531 3.375 -4.203125 3.375 -5.859375 L 3.375 -57.546875 C 3.375 -59.023438 3.445312 -60.085938 3.59375 -60.734375 C 3.738281 -61.390625 4.125 -61.789062 4.75 -61.9375 C 5.375 -62.082031 6.394531 -62.15625 7.8125 -62.15625 L 27 -62.15625 C 28.882812 -62.15625 30.097656 -61.945312 30.640625 -61.53125 C 30.929688 -61.300781 31.117188 -60.722656 31.203125 -59.796875 C 31.296875 -58.878906 31.328125 -57.90625 31.296875 -56.875 C 31.265625 -55.84375 31.222656 -54.96875 31.171875 -54.25 C 31.109375 -53.1875 30.644531 -52.59375 29.78125 -52.46875 C 28.925781 -52.351562 27.847656 -52.296875 26.546875 -52.296875 L 17.765625 -52.296875 C 16.285156 -52.242188 15.289062 -51.945312 14.78125 -51.40625 C 14.28125 -50.875 13.972656 -49.929688 13.859375 -48.578125 C 13.796875 -47.097656 13.78125 -45.613281 13.8125 -44.125 C 13.84375 -42.644531 13.882812 -41.195312 13.9375 -39.78125 C 13.9375 -38.71875 14.203125 -37.859375 14.734375 -37.203125 C 15.273438 -36.734375 16.03125 -36.46875 17 -36.40625 C 17.976562 -36.34375 19.148438 -36.3125 20.515625 -36.3125 C 21.222656 -36.3125 21.84375 -36.3125 22.375 -36.3125 C 22.90625 -36.3125 23.320312 -36.285156 23.625 -36.234375 C 24.6875 -36.234375 25.394531 -36.039062 25.75 -35.65625 C 26.101562 -35.269531 26.3125 -34.539062 26.375 -33.46875 C 26.4375 -32.53125 26.46875 -31.597656 26.46875 -30.671875 C 26.46875 -29.753906 26.40625 -28.820312 26.28125 -27.875 C 26.28125 -26.695312 25.628906 -26.046875 24.328125 -25.921875 C 23.679688 -25.867188 22.851562 -25.84375 21.84375 -25.84375 C 20.832031 -25.84375 19.675781 -25.84375 18.375 -25.84375 C 16.71875 -25.84375 15.59375 -25.601562 15 -25.125 C 14.414062 -24.65625 14.0625 -23.472656 13.9375 -21.578125 C 13.882812 -20.515625 13.84375 -19.375 13.8125 -18.15625 C 13.78125 -16.945312 13.796875 -15.660156 13.859375 -14.296875 C 13.972656 -12.878906 14.28125 -11.898438 14.78125 -11.359375 C 15.289062 -10.828125 16.285156 -10.535156 17.765625 -10.484375 L 26.46875 -10.484375 C 27.820312 -10.421875 28.910156 -10.34375 29.734375 -10.25 C 30.566406 -10.164062 31.046875 -9.617188 31.171875 -8.609375 Z M 31.171875 -8.609375 "/></g></g></g><g fill="#690b22" fill-opacity="1"><g transform="translate(228.436593, 246.278548)"><g><path d="M 38 -4.890625 C 38 -3.347656 37.910156 -2.21875 37.734375 -1.5 C 37.554688 -0.789062 37.128906 -0.363281 36.453125 -0.21875 C 35.773438 -0.0703125 34.632812 0 33.03125 0 C 32.320312 0 31.460938 0.015625 30.453125 0.046875 C 29.453125 0.078125 28.519531 -0.0507812 27.65625 -0.34375 C 26.800781 -0.644531 26.222656 -1.238281 25.921875 -2.125 C 25.867188 -2.300781 25.8125 -2.507812 25.75 -2.75 C 25.6875 -2.988281 25.597656 -3.253906 25.484375 -3.546875 L 25.046875 -4.796875 C 22.796875 -11.835938 21.117188 -17.0625 20.015625 -20.46875 C 18.921875 -23.875 18.40625 -25.457031 18.46875 -25.21875 L 17.40625 -28.15625 C 17.164062 -28.6875 16.804688 -28.90625 16.328125 -28.8125 C 15.859375 -28.726562 15.503906 -28.414062 15.265625 -27.875 C 15.035156 -27.226562 14.921875 -25.957031 14.921875 -24.0625 L 14.921875 -4.796875 C 14.921875 -3.191406 14.84375 -2.0625 14.6875 -1.40625 C 14.539062 -0.757812 14.113281 -0.363281 13.40625 -0.21875 C 12.695312 -0.0703125 11.515625 0 9.859375 0 L 6.75 0 C 5.382812 -0.175781 4.640625 -0.765625 4.515625 -1.765625 C 4.398438 -2.773438 4.34375 -3.992188 4.34375 -5.421875 L 4.34375 -57.359375 C 4.34375 -58.722656 4.398438 -59.878906 4.515625 -60.828125 C 4.640625 -61.773438 5.207031 -62.273438 6.21875 -62.328125 L 14.65625 -62.328125 C 15.78125 -62.328125 16.519531 -61.707031 16.875 -60.46875 C 16.988281 -60.175781 17.132812 -59.75 17.3125 -59.1875 C 17.488281 -58.625 17.695312 -57.925781 17.9375 -57.09375 C 18.175781 -56.382812 18.382812 -55.75 18.5625 -55.1875 C 18.738281 -54.625 18.851562 -54.132812 18.90625 -53.71875 C 19.269531 -52.539062 19.71875 -51.0625 20.25 -49.28125 C 20.78125 -47.507812 21.328125 -45.660156 21.890625 -43.734375 C 22.453125 -41.804688 22.96875 -40.054688 23.4375 -38.484375 C 23.914062 -36.921875 24.273438 -35.722656 24.515625 -34.890625 C 24.691406 -34.359375 24.867188 -33.914062 25.046875 -33.5625 C 25.273438 -33.03125 25.640625 -32.789062 26.140625 -32.84375 C 26.648438 -32.90625 26.9375 -33.207031 27 -33.75 C 27.289062 -34.570312 27.4375 -35.21875 27.4375 -35.6875 C 27.4375 -36.164062 27.4375 -37.144531 27.4375 -38.625 C 27.5 -45.257812 27.53125 -50.171875 27.53125 -53.359375 C 27.53125 -56.554688 27.53125 -58.066406 27.53125 -57.890625 C 27.53125 -59.367188 27.601562 -60.421875 27.75 -61.046875 C 27.894531 -61.671875 28.289062 -62.054688 28.9375 -62.203125 C 29.59375 -62.347656 30.632812 -62.421875 32.0625 -62.421875 C 32.820312 -62.421875 33.554688 -62.421875 34.265625 -62.421875 C 34.984375 -62.421875 35.664062 -62.363281 36.3125 -62.25 C 37.257812 -62.1875 37.773438 -61.695312 37.859375 -60.78125 C 37.953125 -59.863281 38 -58.898438 38 -57.890625 Z M 38 -4.890625 "/></g></g></g><g fill="#690b22" fill-opacity="1"><g transform="translate(270.438682, 246.278548)"><g><path d="M 29.03125 -59.140625 C 31.226562 -56.953125 32.679688 -55.015625 33.390625 -53.328125 C 34.097656 -51.640625 34.453125 -49.785156 34.453125 -47.765625 L 34.453125 -15.1875 C 34.453125 -12.050781 33.679688 -9.269531 32.140625 -6.84375 C 30.722656 -4.769531 29.363281 -3.226562 28.0625 -2.21875 C 26.757812 -1.207031 25.25 -0.554688 23.53125 -0.265625 C 21.8125 0.0234375 19.648438 0.140625 17.046875 0.078125 C 14.441406 0.0234375 11.128906 0 7.109375 0 L 6.75 0 C 5.914062 0 5.320312 -0.175781 4.96875 -0.53125 C 4.613281 -0.882812 4.40625 -1.398438 4.34375 -2.078125 C 4.289062 -2.765625 4.265625 -3.90625 4.265625 -5.5 L 4.265625 -57.359375 C 4.265625 -58.015625 4.273438 -58.609375 4.296875 -59.140625 C 4.328125 -59.671875 4.34375 -60.113281 4.34375 -60.46875 C 4.46875 -61.53125 4.941406 -62.117188 5.765625 -62.234375 C 6.597656 -62.359375 7.429688 -62.421875 8.265625 -62.421875 C 12.398438 -62.484375 15.519531 -62.515625 17.625 -62.515625 C 19.726562 -62.515625 20.8125 -62.515625 20.875 -62.515625 C 24.125 -62.515625 26.84375 -61.390625 29.03125 -59.140625 Z M 23.96875 -44.84375 C 23.96875 -45.4375 23.96875 -45.925781 23.96875 -46.3125 C 23.96875 -46.695312 23.941406 -47.003906 23.890625 -47.234375 C 23.648438 -50.140625 22.082031 -51.679688 19.1875 -51.859375 C 17.519531 -51.972656 16.359375 -51.78125 15.703125 -51.28125 C 15.054688 -50.78125 14.765625 -49.703125 14.828125 -48.046875 L 14.828125 -15.453125 C 14.828125 -14.390625 14.882812 -13.441406 15 -12.609375 C 15.125 -11.773438 15.597656 -11.179688 16.421875 -10.828125 C 17.546875 -10.421875 18.6875 -10.363281 19.84375 -10.65625 C 21 -10.945312 21.972656 -11.519531 22.765625 -12.375 C 23.566406 -13.238281 23.96875 -14.234375 23.96875 -15.359375 Z M 23.96875 -44.84375 "/></g></g></g><g fill="#690b22" fill-opacity="1"><g transform="translate(308.97758, 246.278548)"><g><path d="M 34.359375 -16.78125 C 34.359375 -16.3125 34.285156 -15.5 34.140625 -14.34375 C 33.992188 -13.1875 33.742188 -11.691406 33.390625 -9.859375 C 33.328125 -9.441406 33.222656 -9.054688 33.078125 -8.703125 C 32.929688 -8.347656 32.738281 -7.960938 32.5 -7.546875 C 30.71875 -4.703125 28.566406 -2.613281 26.046875 -1.28125 C 23.535156 0.0390625 20.929688 0.671875 18.234375 0.609375 C 15.546875 0.554688 13.03125 -0.160156 10.6875 -1.546875 C 8.351562 -2.941406 6.476562 -4.972656 5.0625 -7.640625 C 4.050781 -9.472656 3.546875 -11.835938 3.546875 -14.734375 L 3.546875 -48.046875 C 3.367188 -53.253906 5.859375 -57.722656 11.015625 -61.453125 C 12.078125 -62.222656 13.140625 -62.695312 14.203125 -62.875 C 17.703125 -63.40625 20.648438 -63.398438 23.046875 -62.859375 C 25.441406 -62.328125 27.554688 -61.175781 29.390625 -59.40625 C 31.285156 -57.6875 32.570312 -55.640625 33.25 -53.265625 C 33.9375 -50.898438 34.28125 -48.535156 34.28125 -46.171875 Z M 22.640625 -13.140625 C 22.992188 -13.972656 23.171875 -15.097656 23.171875 -16.515625 L 23.171875 -46.53125 C 23.171875 -47.175781 23.125 -47.75 23.03125 -48.25 C 22.945312 -48.757812 22.847656 -49.222656 22.734375 -49.640625 C 22.253906 -51.117188 21.363281 -52.050781 20.0625 -52.4375 C 18.757812 -52.820312 17.5 -52.71875 16.28125 -52.125 C 15.070312 -51.53125 14.351562 -50.460938 14.125 -48.921875 C 14.0625 -48.691406 14.03125 -48.335938 14.03125 -47.859375 C 14.03125 -47.390625 14.03125 -46.796875 14.03125 -46.078125 L 14.03125 -17.140625 C 14.03125 -16.253906 14.054688 -15.484375 14.109375 -14.828125 C 14.171875 -14.179688 14.289062 -13.675781 14.46875 -13.3125 C 14.945312 -12.132812 15.734375 -11.320312 16.828125 -10.875 C 17.921875 -10.4375 19.03125 -10.40625 20.15625 -10.78125 C 21.28125 -11.164062 22.109375 -11.953125 22.640625 -13.140625 Z M 22.640625 -13.140625 "/></g></g></g><g fill="#690b22" fill-opacity="0.4"><g transform="translate(52.908309, 189.899895)"><g><path d="M 7.015625 -2.921875 L 6.390625 -60.25 C 6.390625 -61.664062 6.960938 -62.890625 8.109375 -63.921875 C 9.265625 -64.960938 10.582031 -65.691406 12.0625 -66.109375 C 13.539062 -66.523438 14.929688 -66.582031 16.234375 -66.28125 C 17.535156 -65.988281 18.363281 -65.222656 18.71875 -63.984375 C 19.84375 -61.734375 20.613281 -58.625 21.03125 -54.65625 C 21.800781 -47.257812 22.1875 -40.875 22.1875 -35.5 C 22.78125 -34.550781 23.519531 -34.101562 24.40625 -34.15625 C 26.945312 -40.375 29.753906 -46.347656 32.828125 -52.078125 C 35.910156 -57.816406 37.894531 -61.5 38.78125 -63.125 C 39.664062 -64.757812 40.726562 -65.898438 41.96875 -66.546875 C 43.207031 -67.203125 44.539062 -67.617188 45.96875 -67.796875 C 49.039062 -68.148438 51.9375 -67.617188 54.65625 -66.203125 C 56.726562 -65.484375 57.941406 -64.269531 58.296875 -62.5625 C 59.660156 -59.832031 58.742188 -56.695312 55.546875 -53.15625 C 51.816406 -47.238281 48.0625 -40.703125 44.28125 -33.546875 C 37.0625 -19.753906 32.472656 -11.257812 30.515625 -8.0625 C 28.566406 -4.875 27.148438 -2.613281 26.265625 -1.28125 C 25.378906 0.0390625 24.375 1.148438 23.25 2.046875 C 21.238281 3.640625 18.8125 4.289062 15.96875 4 C 11 3.820312 8.101562 2.253906 7.28125 -0.703125 C 7.101562 -1.535156 7.015625 -2.273438 7.015625 -2.921875 Z M 7.015625 -2.921875 "/></g></g></g><g fill="#f1e3d3" fill-opacity="1"><g transform="translate(48.986789, 185.978377)"><g><path d="M 7.015625 -2.921875 L 6.390625 -60.25 C 6.390625 -61.664062 6.960938 -62.890625 8.109375 -63.921875 C 9.265625 -64.960938 10.582031 -65.691406 12.0625 -66.109375 C 13.539062 -66.523438 14.929688 -66.582031 16.234375 -66.28125 C 17.535156 -65.988281 18.363281 -65.222656 18.71875 -63.984375 C 19.84375 -61.734375 20.613281 -58.625 21.03125 -54.65625 C 21.800781 -47.257812 22.1875 -40.875 22.1875 -35.5 C 22.78125 -34.550781 23.519531 -34.101562 24.40625 -34.15625 C 26.945312 -40.375 29.753906 -46.347656 32.828125 -52.078125 C 35.910156 -57.816406 37.894531 -61.5 38.78125 -63.125 C 39.664062 -64.757812 40.726562 -65.898438 41.96875 -66.546875 C 43.207031 -67.203125 44.539062 -67.617188 45.96875 -67.796875 C 49.039062 -68.148438 51.9375 -67.617188 54.65625 -66.203125 C 56.726562 -65.484375 57.941406 -64.269531 58.296875 -62.5625 C 59.660156 -59.832031 58.742188 -56.695312 55.546875 -53.15625 C 51.816406 -47.238281 48.0625 -40.703125 44.28125 -33.546875 C 37.0625 -19.753906 32.472656 -11.257812 30.515625 -8.0625 C 28.566406 -4.875 27.148438 -2.613281 26.265625 -1.28125 C 25.378906 0.0390625 24.375 1.148438 23.25 2.046875 C 21.238281 3.640625 18.8125 4.289062 15.96875 4 C 11 3.820312 8.101562 2.253906 7.28125 -0.703125 C 7.101562 -1.535156 7.015625 -2.273438 7.015625 -2.921875 Z M 7.015625 -2.921875 "/></g></g></g><g fill="#690b22" fill-opacity="0.4"><g transform="translate(103.755982, 178.337473)"><g><path d="M 49.0625 -60.15625 C 51.082031 -59.09375 52.359375 -57.523438 52.890625 -55.453125 C 51.703125 -48.828125 50.632812 -42.242188 49.6875 -35.703125 C 48.738281 -29.171875 47.820312 -23.703125 46.9375 -19.296875 C 46.050781 -14.890625 45.445312 -11.59375 45.125 -9.40625 C 44.800781 -7.21875 44.429688 -5.03125 44.015625 -2.84375 L 43.484375 -0.96875 C 43.359375 -0.320312 43.238281 0.28125 43.125 0.84375 C 43.007812 1.40625 42.890625 2.007812 42.765625 2.65625 C 41.109375 4.550781 38.863281 5.5 36.03125 5.5 C 33.007812 5.5 30.613281 4.726562 28.84375 3.1875 C 27.769531 2.363281 27.59375 0.617188 28.3125 -2.046875 C 28.601562 -3.109375 28.789062 -4.484375 28.875 -6.171875 C 28.96875 -7.859375 29.070312 -9.257812 29.1875 -10.375 L 29.1875 -10.5625 C 27.414062 -9.90625 25.816406 -9.0625 24.390625 -8.03125 C 22.972656 -7 22.085938 -6.347656 21.734375 -6.078125 C 21.378906 -5.804688 20.90625 -5.597656 20.3125 -5.453125 C 19.726562 -5.304688 19.195312 -5.203125 18.71875 -5.140625 C 17.59375 -5.085938 16.828125 -4.910156 16.421875 -4.609375 C 12.984375 1.535156 9.90625 4.960938 7.1875 5.671875 C 5.46875 6.210938 3.75 6.347656 2.03125 6.078125 C 0.320312 5.804688 -1.035156 4.785156 -2.046875 3.015625 C -3.929688 1.242188 -3.457031 -3.601562 -0.625 -11.53125 C 0.914062 -15.726562 3.117188 -20.769531 5.984375 -26.65625 C 8.859375 -32.550781 11.625 -37.6875 14.28125 -42.0625 C 20.019531 -51.46875 26.320312 -59.394531 33.1875 -65.84375 C 34.3125 -66.3125 35.523438 -66.859375 36.828125 -67.484375 C 38.128906 -68.109375 39.414062 -68.445312 40.6875 -68.5 C 41.957031 -68.5625 43.269531 -68.414062 44.625 -68.0625 C 45.988281 -67.707031 47.144531 -67.175781 48.09375 -66.46875 C 50.28125 -64.8125 50.601562 -62.707031 49.0625 -60.15625 Z M 30.078125 -36.828125 C 28.835938 -33.273438 27.59375 -30.003906 26.34375 -27.015625 C 25.101562 -24.023438 24.039062 -21.410156 23.15625 -19.171875 L 30.171875 -19.4375 C 30.640625 -23.21875 31.171875 -26.972656 31.765625 -30.703125 C 32.359375 -34.429688 32.921875 -38.15625 33.453125 -41.875 Z M 27.6875 -19.078125 C 28.507812 -19.078125 29.335938 -19.132812 30.171875 -19.25 L 30.171875 -19.34375 C 29.398438 -19.28125 28.6875 -19.21875 28.03125 -19.15625 C 27.382812 -19.101562 27.269531 -19.078125 27.6875 -19.078125 Z M 27.6875 -19.078125 "/></g></g></g><g fill="#f1e3d3" fill-opacity="1"><g transform="translate(99.834463, 174.415955)"><g><path d="M 49.0625 -60.15625 C 51.082031 -59.09375 52.359375 -57.523438 52.890625 -55.453125 C 51.703125 -48.828125 50.632812 -42.242188 49.6875 -35.703125 C 48.738281 -29.171875 47.820312 -23.703125 46.9375 -19.296875 C 46.050781 -14.890625 45.445312 -11.59375 45.125 -9.40625 C 44.800781 -7.21875 44.429688 -5.03125 44.015625 -2.84375 L 43.484375 -0.96875 C 43.359375 -0.320312 43.238281 0.28125 43.125 0.84375 C 43.007812 1.40625 42.890625 2.007812 42.765625 2.65625 C 41.109375 4.550781 38.863281 5.5 36.03125 5.5 C 33.007812 5.5 30.613281 4.726562 28.84375 3.1875 C 27.769531 2.363281 27.59375 0.617188 28.3125 -2.046875 C 28.601562 -3.109375 28.789062 -4.484375 28.875 -6.171875 C 28.96875 -7.859375 29.070312 -9.257812 29.1875 -10.375 L 29.1875 -10.5625 C 27.414062 -9.90625 25.816406 -9.0625 24.390625 -8.03125 C 22.972656 -7 22.085938 -6.347656 21.734375 -6.078125 C 21.378906 -5.804688 20.90625 -5.597656 20.3125 -5.453125 C 19.726562 -5.304688 19.195312 -5.203125 18.71875 -5.140625 C 17.59375 -5.085938 16.828125 -4.910156 16.421875 -4.609375 C 12.984375 1.535156 9.90625 4.960938 7.1875 5.671875 C 5.46875 6.210938 3.75 6.347656 2.03125 6.078125 C 0.320312 5.804688 -1.035156 4.785156 -2.046875 3.015625 C -3.929688 1.242188 -3.457031 -3.601562 -0.625 -11.53125 C 0.914062 -15.726562 3.117188 -20.769531 5.984375 -26.65625 C 8.859375 -32.550781 11.625 -37.6875 14.28125 -42.0625 C 20.019531 -51.46875 26.320312 -59.394531 33.1875 -65.84375 C 34.3125 -66.3125 35.523438 -66.859375 36.828125 -67.484375 C 38.128906 -68.109375 39.414062 -68.445312 40.6875 -68.5 C 41.957031 -68.5625 43.269531 -68.414062 44.625 -68.0625 C 45.988281 -67.707031 47.144531 -67.175781 48.09375 -66.46875 C 50.28125 -64.8125 50.601562 -62.707031 49.0625 -60.15625 Z M 30.078125 -36.828125 C 28.835938 -33.273438 27.59375 -30.003906 26.34375 -27.015625 C 25.101562 -24.023438 24.039062 -21.410156 23.15625 -19.171875 L 30.171875 -19.4375 C 30.640625 -23.21875 31.171875 -26.972656 31.765625 -30.703125 C 32.359375 -34.429688 32.921875 -38.15625 33.453125 -41.875 Z M 27.6875 -19.078125 C 28.507812 -19.078125 29.335938 -19.132812 30.171875 -19.25 L 30.171875 -19.34375 C 29.398438 -19.28125 28.6875 -19.21875 28.03125 -19.15625 C 27.382812 -19.101562 27.269531 -19.078125 27.6875 -19.078125 Z M 27.6875 -19.078125 "/></g></g></g></svg>